# xmcd CD database file
#
# Track frame offsets:
#	150
#	12922
#	35512
#	62937
#	91722
#	113212
#	134637
#	149637
#	168382
#	185850
#	206170
#	224700
#	236562
#	255810
#	272362
#	299430
#
# Disc length: 4346 seconds
#
# Revision: 0
# Processed by: cddbd v1.5.2PL0 Copyright (c) Steve Scherf et al.
# Submitted via: CDex 1.51
#
DISCID=fc10f810
DTITLE=³¯¾åªF - µL
DYEAR=1997
DGENRE=Blues
TTITLE0=test 01
TTITLE1=test 02
TTITLE2=test 03
TTITLE3=test 04
TTITLE4=test 05
TTITLE5=test 06
TTITLE6=test 07
TTITLE7=test 08
TTITLE8=test 09
TTITLE9=test 10
TTITLE10=test 11
TTITLE11=test 12
TTITLE12=test 13
TTITLE13=test 14
TTITLE14=test 15
TTITLE15=test 16
EXTD=YEAR: 1997
EXTT0=
EXTT1=
EXTT2=
EXTT3=
EXTT4=
EXTT5=
EXTT6=
EXTT7=
EXTT8=
EXTT9=
EXTT10=
EXTT11=
EXTT12=
EXTT13=
EXTT14=
EXTT15=
PLAYORDER=
